<svg width="60" height="106" viewBox="0 0 60 106" fill="none" xmlns="http://www.w3.org/2000/svg">
<g filter="url(#filter0_d_691_2)">
<path fill-rule="evenodd" clip-rule="evenodd" d="M7 26C7 21.0223 8.58128 16.4139 11.2689 12.6497V20.2181C9.58543 21.9665 8.14442 23.95 7 26.1144V26ZM12.9463 18.6237V10.5669C17.1548 5.91943 23.2364 3 30 3C36.7636 3 42.8453 5.91946 47.0537 10.5669V18.6237C42.4886 14.6536 36.525 12.25 30 12.25C23.475 12.25 17.5114 14.6536 12.9463 18.6237ZM48.7311 20.2182C50.4146 21.9665 51.8556 23.95 53 26.1145V26C53 21.0223 51.4187 16.4139 48.7311 12.6498V20.2182ZM4 38.25V26C4 11.6406 15.6406 0 30 0C44.3594 0 56 11.6406 56 26V38.25V61.3594V76.5625V91C56 94.866 52.866 98 49 98H11C7.13401 98 4 94.866 4 91V76.5625V61.3594V38.25Z" fill="#E0E0E0"/>
</g>
<g filter="url(#filter1_i_691_2)">
<path d="M32.1891 63H29.6091V57.225C29.6091 57.085 29.6091 56.89 29.6091 56.64C29.6091 56.38 29.6141 56.105 29.6241 55.815C29.6341 55.515 29.6441 55.255 29.6541 55.035C29.5741 55.135 29.4641 55.255 29.3241 55.395C29.1841 55.525 29.0541 55.64 28.9341 55.74L27.7041 56.745L26.4291 55.155L29.9841 52.29H32.1891V63Z" fill="#4FE0B6" fill-opacity="0.85"/>
</g>
<defs>
<filter id="filter0_d_691_2" x="0" y="0" width="60" height="106" filterUnits="userSpaceOnUse" color-interpolation-filters="sRGB">
<feFlood flood-opacity="0" result="BackgroundImageFix"/>
<feColorMatrix in="SourceAlpha" type="matrix" values="0 0 0 0 0 0 0 0 0 0 0 0 0 0 0 0 0 0 127 0" result="hardAlpha"/>
<feOffset dy="4"/>
<feGaussianBlur stdDeviation="2"/>
<feComposite in2="hardAlpha" operator="out"/>
<feColorMatrix type="matrix" values="0 0 0 0 0 0 0 0 0 0 0 0 0 0 0 0 0 0 0.5 0"/>
<feBlend mode="normal" in2="BackgroundImageFix" result="effect1_dropShadow_691_2"/>
<feBlend mode="normal" in="SourceGraphic" in2="effect1_dropShadow_691_2" result="shape"/>
</filter>
<filter id="filter1_i_691_2" x="26.4291" y="52.29" width="5.76001" height="14.71" filterUnits="userSpaceOnUse" color-interpolation-filters="sRGB">
<feFlood flood-opacity="0" result="BackgroundImageFix"/>
<feBlend mode="normal" in="SourceGraphic" in2="BackgroundImageFix" result="shape"/>
<feColorMatrix in="SourceAlpha" type="matrix" values="0 0 0 0 0 0 0 0 0 0 0 0 0 0 0 0 0 0 127 0" result="hardAlpha"/>
<feOffset dy="4"/>
<feGaussianBlur stdDeviation="2"/>
<feComposite in2="hardAlpha" operator="arithmetic" k2="-1" k3="1"/>
<feColorMatrix type="matrix" values="0 0 0 0 0 0 0 0 0 0 0 0 0 0 0 0 0 0 0.25 0"/>
<feBlend mode="normal" in2="shape" result="effect1_innerShadow_691_2"/>
</filter>
</defs>
</svg>
