<svg width="60" height="106" viewBox="0 0 60 106" fill="none" xmlns="http://www.w3.org/2000/svg">
<g filter="url(#filter0_d_692_9)">
<path fill-rule="evenodd" clip-rule="evenodd" d="M53 72C53 76.9777 51.4187 81.5861 48.7311 85.3503V77.7819C50.4146 76.0335 51.8556 74.05 53 71.8856V72ZM47.0537 79.3763V87.4331C42.8452 92.0806 36.7636 95 30 95C23.2364 95 17.1547 92.0805 12.9463 87.4331V79.3763C17.5114 83.3464 23.475 85.75 30 85.75C36.525 85.75 42.4886 83.3464 47.0537 79.3763ZM11.2689 77.7818C9.5854 76.0335 8.14441 74.05 7 71.8855V72C7 76.9777 8.58126 81.5861 11.2689 85.3502V77.7818ZM56 59.75L56 72C56 86.3594 44.3594 98 30 98C15.6406 98 4 86.3594 4 72L4 59.75V36.6406V21.4375L4 7C4 3.134 7.13401 0 11 0H49C52.866 0 56 3.13401 56 7L56 21.4375V36.6406V59.75Z" fill="#E0E0E0"/>
</g>
<g filter="url(#filter1_i_692_9)">
<path d="M27.8531 45H25.2731V39.225C25.2731 39.085 25.2731 38.89 25.2731 38.64C25.2731 38.38 25.2781 38.105 25.2881 37.815C25.2981 37.515 25.3081 37.255 25.3181 37.035C25.2381 37.135 25.1281 37.255 24.9881 37.395C24.8481 37.525 24.7181 37.64 24.5981 37.74L23.3681 38.745L22.0931 37.155L25.6481 34.29H27.8531V45ZM38.13 39.645C38.13 40.515 38.06 41.29 37.92 41.97C37.79 42.64 37.575 43.215 37.275 43.695C36.975 44.165 36.585 44.525 36.105 44.775C35.625 45.025 35.035 45.15 34.335 45.15C33.455 45.15 32.735 44.93 32.175 44.49C31.615 44.05 31.2 43.42 30.93 42.6C30.67 41.78 30.54 40.795 30.54 39.645C30.54 38.485 30.66 37.495 30.9 36.675C31.14 35.855 31.54 35.225 32.1 34.785C32.66 34.345 33.405 34.125 34.335 34.125C35.205 34.125 35.92 34.345 36.48 34.785C37.04 35.225 37.455 35.855 37.725 36.675C37.995 37.495 38.13 38.485 38.13 39.645ZM33.075 39.645C33.075 40.415 33.11 41.055 33.18 41.565C33.26 42.065 33.39 42.445 33.57 42.705C33.75 42.965 34.005 43.095 34.335 43.095C34.665 43.095 34.92 42.97 35.1 42.72C35.28 42.46 35.405 42.075 35.475 41.565C35.555 41.055 35.595 40.415 35.595 39.645C35.595 38.885 35.555 38.25 35.475 37.74C35.405 37.22 35.28 36.83 35.1 36.57C34.92 36.31 34.665 36.18 34.335 36.18C34.005 36.18 33.75 36.31 33.57 36.57C33.39 36.83 33.26 37.215 33.18 37.725C33.11 38.235 33.075 38.875 33.075 39.645Z" fill="#4FE0B6" fill-opacity="0.85"/>
</g>
<defs>
<filter id="filter0_d_692_9" x="0" y="0" width="60" height="106" filterUnits="userSpaceOnUse" color-interpolation-filters="sRGB">
<feFlood flood-opacity="0" result="BackgroundImageFix"/>
<feColorMatrix in="SourceAlpha" type="matrix" values="0 0 0 0 0 0 0 0 0 0 0 0 0 0 0 0 0 0 127 0" result="hardAlpha"/>
<feOffset dy="4"/>
<feGaussianBlur stdDeviation="2"/>
<feComposite in2="hardAlpha" operator="out"/>
<feColorMatrix type="matrix" values="0 0 0 0 0 0 0 0 0 0 0 0 0 0 0 0 0 0 0.5 0"/>
<feBlend mode="normal" in2="BackgroundImageFix" result="effect1_dropShadow_692_9"/>
<feBlend mode="normal" in="SourceGraphic" in2="effect1_dropShadow_692_9" result="shape"/>
</filter>
<filter id="filter1_i_692_9" x="22.0931" y="34.125" width="16.0369" height="15.025" filterUnits="userSpaceOnUse" color-interpolation-filters="sRGB">
<feFlood flood-opacity="0" result="BackgroundImageFix"/>
<feBlend mode="normal" in="SourceGraphic" in2="BackgroundImageFix" result="shape"/>
<feColorMatrix in="SourceAlpha" type="matrix" values="0 0 0 0 0 0 0 0 0 0 0 0 0 0 0 0 0 0 127 0" result="hardAlpha"/>
<feOffset dy="4"/>
<feGaussianBlur stdDeviation="2"/>
<feComposite in2="hardAlpha" operator="arithmetic" k2="-1" k3="1"/>
<feColorMatrix type="matrix" values="0 0 0 0 0 0 0 0 0 0 0 0 0 0 0 0 0 0 0.25 0"/>
<feBlend mode="normal" in2="shape" result="effect1_innerShadow_692_9"/>
</filter>
</defs>
</svg>
