<svg width="60" height="88" viewBox="0 0 60 88" fill="none" xmlns="http://www.w3.org/2000/svg">
<g filter="url(#filter0_d_691_4)">
<path fill-rule="evenodd" clip-rule="evenodd" d="M24 1H36C44.7617 1 52.1382 6.93058 54.3343 14.9965C51.2472 7.93474 44.1999 3 36 3H24C15.8001 3 8.75276 7.93473 5.66572 14.9965C7.86179 6.93058 15.2383 1 24 1ZM4 57V23V20C4 8.95431 12.9543 0 24 0H36C47.0457 0 56 8.95431 56 20V23V57V60C56 71.0457 47.0457 80 36 80H24C12.9543 80 4 71.0457 4 60V57ZM54.3343 65.0035C52.1382 73.0694 44.7617 79 36 79H24C15.2383 79 7.86179 73.0694 5.66572 65.0035C8.75276 72.0653 15.8001 77 24 77H36C44.1999 77 51.2472 72.0653 54.3343 65.0035Z" fill="#E0E0E0"/>
</g>
<g filter="url(#filter1_i_691_4)">
<path d="M33.8091 46H26.1891V44.275L28.8441 41.59C29.3841 41.03 29.8141 40.57 30.1341 40.21C30.4541 39.85 30.6791 39.535 30.8091 39.265C30.9491 38.985 31.0191 38.69 31.0191 38.38C31.0191 38 30.9091 37.725 30.6891 37.555C30.4691 37.375 30.1841 37.285 29.8341 37.285C29.4641 37.285 29.0941 37.38 28.7241 37.57C28.3541 37.76 27.9541 38.035 27.5241 38.395L26.1291 36.76C26.4391 36.48 26.7691 36.22 27.1191 35.98C27.4791 35.73 27.8941 35.53 28.3641 35.38C28.8341 35.22 29.4041 35.14 30.0741 35.14C30.7941 35.14 31.4091 35.27 31.9191 35.53C32.4391 35.78 32.8391 36.125 33.1191 36.565C33.4091 36.995 33.5541 37.49 33.5541 38.05C33.5541 38.5 33.4891 38.92 33.3591 39.31C33.2291 39.69 33.0341 40.06 32.7741 40.42C32.5241 40.77 32.2091 41.135 31.8291 41.515C31.4491 41.895 31.0191 42.31 30.5391 42.76L29.4291 43.78V43.87H33.8091V46Z" fill="#4FE0B6" fill-opacity="0.85"/>
</g>
<defs>
<filter id="filter0_d_691_4" x="0" y="0" width="60" height="88" filterUnits="userSpaceOnUse" color-interpolation-filters="sRGB">
<feFlood flood-opacity="0" result="BackgroundImageFix"/>
<feColorMatrix in="SourceAlpha" type="matrix" values="0 0 0 0 0 0 0 0 0 0 0 0 0 0 0 0 0 0 127 0" result="hardAlpha"/>
<feOffset dy="4"/>
<feGaussianBlur stdDeviation="2"/>
<feComposite in2="hardAlpha" operator="out"/>
<feColorMatrix type="matrix" values="0 0 0 0 0 0 0 0 0 0 0 0 0 0 0 0 0 0 0.5 0"/>
<feBlend mode="normal" in2="BackgroundImageFix" result="effect1_dropShadow_691_4"/>
<feBlend mode="normal" in="SourceGraphic" in2="effect1_dropShadow_691_4" result="shape"/>
</filter>
<filter id="filter1_i_691_4" x="26.129" y="35.14" width="7.68005" height="14.86" filterUnits="userSpaceOnUse" color-interpolation-filters="sRGB">
<feFlood flood-opacity="0" result="BackgroundImageFix"/>
<feBlend mode="normal" in="SourceGraphic" in2="BackgroundImageFix" result="shape"/>
<feColorMatrix in="SourceAlpha" type="matrix" values="0 0 0 0 0 0 0 0 0 0 0 0 0 0 0 0 0 0 127 0" result="hardAlpha"/>
<feOffset dy="4"/>
<feGaussianBlur stdDeviation="2"/>
<feComposite in2="hardAlpha" operator="arithmetic" k2="-1" k3="1"/>
<feColorMatrix type="matrix" values="0 0 0 0 0 0 0 0 0 0 0 0 0 0 0 0 0 0 0.25 0"/>
<feBlend mode="normal" in2="shape" result="effect1_innerShadow_691_4"/>
</filter>
</defs>
</svg>
