<svg width="60" height="88" viewBox="0 0 60 88" fill="none" xmlns="http://www.w3.org/2000/svg">
<g filter="url(#filter0_d_691_6)">
<path fill-rule="evenodd" clip-rule="evenodd" d="M36 1H24C13.5066 1 5 9.50659 5 20V60C5 70.4934 13.5066 79 24 79H36C46.4934 79 55 70.4934 55 60V20C55 9.50659 46.4934 1 36 1ZM24 0C12.9543 0 4 8.95431 4 20V60C4 71.0457 12.9543 80 24 80H36C47.0457 80 56 71.0457 56 60V20C56 8.95431 47.0457 0 36 0H24Z" fill="#E0E0E0"/>
</g>
<g filter="url(#filter1_d_691_6)">
<rect x="4" y="3" width="52" height="74" rx="20" fill="#E0E0E0"/>
</g>
<g filter="url(#filter2_i_691_6)">
<path d="M33.4191 37.66C33.4191 38.16 33.3141 38.59 33.1041 38.95C32.8941 39.31 32.6141 39.61 32.2641 39.85C31.9141 40.08 31.5191 40.25 31.0791 40.36V40.405C31.9391 40.505 32.5941 40.765 33.0441 41.185C33.5041 41.605 33.7341 42.18 33.7341 42.91C33.7341 43.51 33.5791 44.06 33.2691 44.56C32.9591 45.05 32.4791 45.44 31.8291 45.73C31.1891 46.01 30.3591 46.15 29.3391 46.15C28.7091 46.15 28.1441 46.1 27.6441 46C27.1441 45.9 26.6641 45.755 26.2041 45.565V43.42C26.6741 43.66 27.1541 43.84 27.6441 43.96C28.1441 44.07 28.6041 44.125 29.0241 44.125C29.7841 44.125 30.3091 44.005 30.5991 43.765C30.8991 43.525 31.0491 43.185 31.0491 42.745C31.0491 42.475 30.9791 42.245 30.8391 42.055C30.6991 41.865 30.4541 41.72 30.1041 41.62C29.7541 41.52 29.2541 41.47 28.6041 41.47H27.8691V39.535H28.6191C29.2291 39.535 29.6991 39.48 30.0291 39.37C30.3691 39.26 30.6041 39.11 30.7341 38.92C30.8641 38.72 30.9291 38.495 30.9291 38.245C30.9291 37.905 30.8141 37.645 30.5841 37.465C30.3541 37.285 30.0091 37.195 29.5491 37.195C29.2191 37.195 28.9141 37.24 28.6341 37.33C28.3541 37.42 28.1041 37.52 27.8841 37.63C27.6641 37.74 27.4841 37.84 27.3441 37.93L26.2191 36.205C26.5091 36.005 26.8241 35.825 27.1641 35.665C27.5141 35.495 27.9041 35.365 28.3341 35.275C28.7741 35.185 29.2791 35.14 29.8491 35.14C30.9491 35.14 31.8191 35.365 32.4591 35.815C33.0991 36.255 33.4191 36.87 33.4191 37.66Z" fill="#4FE0B6" fill-opacity="0.85"/>
</g>
<defs>
<filter id="filter0_d_691_6" x="0" y="0" width="60" height="88" filterUnits="userSpaceOnUse" color-interpolation-filters="sRGB">
<feFlood flood-opacity="0" result="BackgroundImageFix"/>
<feColorMatrix in="SourceAlpha" type="matrix" values="0 0 0 0 0 0 0 0 0 0 0 0 0 0 0 0 0 0 127 0" result="hardAlpha"/>
<feOffset dy="4"/>
<feGaussianBlur stdDeviation="2"/>
<feComposite in2="hardAlpha" operator="out"/>
<feColorMatrix type="matrix" values="0 0 0 0 0 0 0 0 0 0 0 0 0 0 0 0 0 0 0.5 0"/>
<feBlend mode="normal" in2="BackgroundImageFix" result="effect1_dropShadow_691_6"/>
<feBlend mode="normal" in="SourceGraphic" in2="effect1_dropShadow_691_6" result="shape"/>
</filter>
<filter id="filter1_d_691_6" x="0" y="3" width="60" height="82" filterUnits="userSpaceOnUse" color-interpolation-filters="sRGB">
<feFlood flood-opacity="0" result="BackgroundImageFix"/>
<feColorMatrix in="SourceAlpha" type="matrix" values="0 0 0 0 0 0 0 0 0 0 0 0 0 0 0 0 0 0 127 0" result="hardAlpha"/>
<feOffset dy="4"/>
<feGaussianBlur stdDeviation="2"/>
<feComposite in2="hardAlpha" operator="out"/>
<feColorMatrix type="matrix" values="0 0 0 0 0 0 0 0 0 0 0 0 0 0 0 0 0 0 0.5 0"/>
<feBlend mode="normal" in2="BackgroundImageFix" result="effect1_dropShadow_691_6"/>
<feBlend mode="normal" in="SourceGraphic" in2="effect1_dropShadow_691_6" result="shape"/>
</filter>
<filter id="filter2_i_691_6" x="26.2041" y="35.14" width="7.52991" height="15.01" filterUnits="userSpaceOnUse" color-interpolation-filters="sRGB">
<feFlood flood-opacity="0" result="BackgroundImageFix"/>
<feBlend mode="normal" in="SourceGraphic" in2="BackgroundImageFix" result="shape"/>
<feColorMatrix in="SourceAlpha" type="matrix" values="0 0 0 0 0 0 0 0 0 0 0 0 0 0 0 0 0 0 127 0" result="hardAlpha"/>
<feOffset dy="4"/>
<feGaussianBlur stdDeviation="2"/>
<feComposite in2="hardAlpha" operator="arithmetic" k2="-1" k3="1"/>
<feColorMatrix type="matrix" values="0 0 0 0 0 0 0 0 0 0 0 0 0 0 0 0 0 0 0.25 0"/>
<feBlend mode="normal" in2="shape" result="effect1_innerShadow_691_6"/>
</filter>
</defs>
</svg>
