<svg width="60" height="88" viewBox="0 0 60 88" fill="none" xmlns="http://www.w3.org/2000/svg">
<g filter="url(#filter0_d_691_8)">
<rect x="4" y="3" width="52" height="74" rx="20" fill="#E0E0E0"/>
</g>
<g filter="url(#filter1_d_691_8)">
<rect x="4.5" y="0.5" width="51" height="79" rx="19.5" stroke="#E0E0E0" shape-rendering="crispEdges"/>
</g>
<g filter="url(#filter2_i_691_8)">
<path d="M30.3291 39.07C30.9591 39.07 31.5241 39.2 32.0241 39.46C32.5241 39.72 32.9191 40.1 33.2091 40.6C33.4991 41.09 33.6441 41.695 33.6441 42.415C33.6441 43.205 33.4841 43.88 33.1641 44.44C32.8441 44.99 32.3641 45.415 31.7241 45.715C31.0941 46.005 30.2991 46.15 29.3391 46.15C28.7491 46.15 28.2041 46.1 27.7041 46C27.2041 45.9 26.7641 45.755 26.3841 45.565V43.42C26.7541 43.6 27.1991 43.76 27.7191 43.9C28.2491 44.04 28.7391 44.11 29.1891 44.11C29.5991 44.11 29.9391 44.055 30.2091 43.945C30.4891 43.825 30.7041 43.655 30.8541 43.435C31.0041 43.205 31.0791 42.915 31.0791 42.565C31.0791 42.095 30.9141 41.735 30.5841 41.485C30.2641 41.225 29.7691 41.095 29.0991 41.095C28.8291 41.095 28.5541 41.125 28.2741 41.185C27.9941 41.235 27.7541 41.285 27.5541 41.335L26.5791 40.84L26.9841 35.29H32.9241V37.435H29.1741L29.0091 39.22C29.1791 39.19 29.3541 39.16 29.5341 39.13C29.7141 39.09 29.9791 39.07 30.3291 39.07Z" fill="#4FE0B6" fill-opacity="0.85"/>
</g>
<defs>
<filter id="filter0_d_691_8" x="0" y="3" width="60" height="82" filterUnits="userSpaceOnUse" color-interpolation-filters="sRGB">
<feFlood flood-opacity="0" result="BackgroundImageFix"/>
<feColorMatrix in="SourceAlpha" type="matrix" values="0 0 0 0 0 0 0 0 0 0 0 0 0 0 0 0 0 0 127 0" result="hardAlpha"/>
<feOffset dy="4"/>
<feGaussianBlur stdDeviation="2"/>
<feComposite in2="hardAlpha" operator="out"/>
<feColorMatrix type="matrix" values="0 0 0 0 0 0 0 0 0 0 0 0 0 0 0 0 0 0 0.5 0"/>
<feBlend mode="normal" in2="BackgroundImageFix" result="effect1_dropShadow_691_8"/>
<feBlend mode="normal" in="SourceGraphic" in2="effect1_dropShadow_691_8" result="shape"/>
</filter>
<filter id="filter1_d_691_8" x="0" y="0" width="60" height="88" filterUnits="userSpaceOnUse" color-interpolation-filters="sRGB">
<feFlood flood-opacity="0" result="BackgroundImageFix"/>
<feColorMatrix in="SourceAlpha" type="matrix" values="0 0 0 0 0 0 0 0 0 0 0 0 0 0 0 0 0 0 127 0" result="hardAlpha"/>
<feOffset dy="4"/>
<feGaussianBlur stdDeviation="2"/>
<feComposite in2="hardAlpha" operator="out"/>
<feColorMatrix type="matrix" values="0 0 0 0 0 0 0 0 0 0 0 0 0 0 0 0 0 0 0.5 0"/>
<feBlend mode="normal" in2="BackgroundImageFix" result="effect1_dropShadow_691_8"/>
<feBlend mode="normal" in="SourceGraphic" in2="effect1_dropShadow_691_8" result="shape"/>
</filter>
<filter id="filter2_i_691_8" x="26.384" y="35.29" width="7.26001" height="14.86" filterUnits="userSpaceOnUse" color-interpolation-filters="sRGB">
<feFlood flood-opacity="0" result="BackgroundImageFix"/>
<feBlend mode="normal" in="SourceGraphic" in2="BackgroundImageFix" result="shape"/>
<feColorMatrix in="SourceAlpha" type="matrix" values="0 0 0 0 0 0 0 0 0 0 0 0 0 0 0 0 0 0 127 0" result="hardAlpha"/>
<feOffset dy="4"/>
<feGaussianBlur stdDeviation="2"/>
<feComposite in2="hardAlpha" operator="arithmetic" k2="-1" k3="1"/>
<feColorMatrix type="matrix" values="0 0 0 0 0 0 0 0 0 0 0 0 0 0 0 0 0 0 0.25 0"/>
<feBlend mode="normal" in2="shape" result="effect1_innerShadow_691_8"/>
</filter>
</defs>
</svg>
